# xmcd CD database file
#
# Track frame offsets:
#	150
#	15287
#	31549
#	47152
#	63122
#	75885
#	99705
#	114765
#	133143
#	147636
#	165966
#	182799
#	195090
#	215554
#	232368
#	253157
#	275652
#	291821
#
# Disc length: 3990 seconds
#
# Revision: 0
# Processed by: cddbd v1.5.1PL0 Copyright (c) Steve Scherf et al.
# Submitted via: CDex 1.51
#
DISCID=f50f9412
DTITLE=Various Artist - send my badge!
DYEAR=2002
DGENRE=Pop
TTITLE0=Chocolate Song - Spaghetti Vabune!
TTITLE1=Permanent Vacation - Slight Return
TTITLE2=Walk or not - pastelshot
TTITLE3=space boy wish - mary's 9th cut
TTITLE4=fall gilbart - elekibass
TTITLE5=Distant Sky - cyclon 86
TTITLE6=f.e.m.(harmonic cycle mix) - Sonic Coaster Pop
TTITLE7=Crumble - Camera Works
TTITLE8=gogo paris - Toy's murmur
TTITLE9=Happy Cause' I'm going home - pecsels
TTITLE10=(baby please) take me now - soft parade
TTITLE11=And Your Smile - The Cartoon Characters
TTITLE12=nostalgia for the sky - PETSET
TTITLE13=Amsterdam - floor
TTITLE14=the melody goes on - roly poly rag bear
TTITLE15=Picture of the birthday - crawl babies
TTITLE16=French Letter - ozone crutch
TTITLE17=L'odeur de la mer - Camembert
EXTD=YEAR: 2002
EXTT0=
EXTT1=
EXTT2=
EXTT3=
EXTT4=
EXTT5=
EXTT6=
EXTT7=
EXTT8=
EXTT9=
EXTT10=
EXTT11=
EXTT12=
EXTT13=
EXTT14=
EXTT15=
EXTT16=
EXTT17=
PLAYORDER=
